<svg width="1050" height="633" viewBox="0 0 1050 633" fill="none" xmlns="http://www.w3.org/2000/svg">
<path d="M162.372 632.047H261.372V572.047H299.872V487.047H261.372V272.047H153.872L0.371582 491.047V572.047H162.372V632.047ZM100.872 487.047L169.872 382.547V487.047H100.872Z" fill="#EC9582"/>
<path d="M379.872 185.027C379.872 294.527 419.872 371.027 524.872 371.027C629.872 371.027 670.372 294.527 670.372 185.027C670.372 77.0274 629.872 0.0273438 524.872 0.0273438C419.872 0.0273438 379.872 77.0274 379.872 185.027ZM573.372 185.027C573.372 237.027 568.372 278.527 524.872 278.527C481.372 278.527 476.372 237.027 476.372 185.027C476.372 134.527 481.372 92.5273 524.872 92.5273C568.372 92.5273 573.372 134.527 573.372 185.027Z" fill="#4FA9A9"/>
<path d="M550.078 456.494C550.078 456.494 549.11 414.352 548.366 408.963C548.366 408.963 527.638 388.2 528.641 386.363C526.927 385.703 523.25 383.463 522.992 380.935C517.874 380.752 512.015 383.245 511.962 392.727C511.933 397.904 510.333 401.941 507.041 408.778C500.447 422.478 512.592 423.652 506.286 440.678C501.901 452.52 549.894 459.002 550.077 456.491" fill="#FCD9C2"/>
<path d="M522.759 387.215C520.704 388.999 519.236 391.363 518.547 393.996C518.178 395.906 518.087 397.86 518.279 399.796C518.38 400.828 518.197 401.868 517.751 402.804C516.141 406.074 512.964 406.995 512.265 408.188C511.171 410.088 512.783 411.947 514.142 412.611C514.384 412.727 514.385 412.981 514.412 413.246C514.376 414.084 514.079 414.891 513.561 415.552C513.561 415.552 515.006 418.985 513.108 419.908C513.108 419.908 513.101 419.908 513.098 419.913C514.412 421.752 511.398 424.433 513.215 427.028C515.691 430.567 526.115 428.159 526.832 430.528C528.496 436.082 527.051 446.222 525.589 449.682L509.706 476.416L530.896 507.508L557.039 457.926C557.039 457.926 555.086 450.493 555.08 448.809C555.029 437.395 550.08 395.509 550.08 395.509C552.48 396.485 535.88 387.209 522.757 387.219" fill="#FF9669"/>
<path d="M521.697 404.114C523.485 404.34 525.246 404.747 526.952 405.328C527.273 405.428 526.193 404.26 522.694 403.205C521.769 402.975 520.901 402.555 520.146 401.973C520.194 402.434 520.362 402.876 520.634 403.251C520.906 403.627 521.273 403.925 521.697 404.114Z" fill="#6E1809"/>
<path d="M521.359 404.362C521.23 404.979 521.482 405.555 521.922 405.647C522.362 405.739 522.822 405.314 522.954 404.696C523.086 404.078 522.832 403.503 522.391 403.411C521.95 403.319 521.491 403.744 521.359 404.362Z" fill="#721909"/>
<path d="M530.416 401.838C528.591 401.069 526.668 400.552 524.703 400.303C523.32 400.281 521.946 400.072 520.619 399.682C520.235 399.575 519.894 399.351 519.643 399.042C519.392 398.732 519.244 398.352 519.219 397.954C519.225 397.836 519.275 397.724 519.358 397.639C519.441 397.554 519.552 397.503 519.67 397.494C528.742 397.38 531.089 402.274 530.416 401.839" fill="#6E1809"/>
<path d="M518.595 418.275C518.76 417.841 517.419 418.508 514.978 416.252C514.499 415.713 513.714 415.352 513.56 415.552C512.902 416.389 513.534 417.572 514.054 418.121C513.879 418.151 513.712 418.217 513.564 418.314C513.415 418.412 513.288 418.538 513.19 418.686C513.092 418.834 513.025 419 512.993 419.175C512.962 419.35 512.966 419.529 513.006 419.702C513.481 421.296 518.43 418.71 518.595 418.276" fill="#A20E2E"/>
<path d="M553.521 447.604C569.295 450.282 580.057 451.012 584.207 454.504C582.46 476.452 571.395 541.609 571.395 541.609L509.578 541.109C509.578 541.109 506.35 505.478 506.35 504.768C504.413 504.219 496.436 496.741 502.724 486.126C507.795 477.565 500.351 454.126 498.873 445.626C498.837 445.517 526.348 447.388 526.348 447.388C526.348 447.388 527.348 479.788 539.309 479.788C550.775 479.788 553.253 447.551 553.521 447.597" fill="white"/>
<path d="M623.02 372.94C623.972 372.162 607.532 374.821 607.51 370.319C612.534 352.187 613.605 343.095 615.887 338.355C617.726 334.535 626.087 331.291 627.087 330.799C629.921 329.284 632.522 327.371 634.812 325.117C635.129 324.754 635.576 324.53 636.057 324.493C636.538 324.457 637.014 324.612 637.382 324.923C637.565 325.076 637.713 325.266 637.815 325.481C637.918 325.695 637.973 325.929 637.978 326.167C637.982 326.405 637.935 326.642 637.84 326.86C637.745 327.078 637.604 327.273 637.427 327.432C636.375 328.681 633.112 332.232 633.054 332.29C633.141 332.302 633.231 332.316 633.307 332.326C633.588 332.358 633.866 332.409 634.14 332.48L637.863 330.424L644.889 323.246C645.157 322.989 645.514 322.847 645.885 322.851C646.257 322.855 646.611 323.004 646.873 323.267C646.944 323.341 647.028 323.436 647.251 323.083C647.351 322.926 647.482 322.791 647.635 322.685C647.789 322.58 647.963 322.507 648.145 322.471C648.328 322.435 648.516 322.437 648.698 322.476C648.881 322.514 649.053 322.59 649.205 322.697C649.382 322.817 649.527 322.978 649.629 323.165C649.843 323.017 650.097 322.941 650.357 322.946C650.616 322.951 650.868 323.038 651.075 323.194C651.285 323.357 651.433 323.586 651.498 323.843C651.562 324.1 651.538 324.372 651.429 324.614C651.429 324.614 651.272 324.971 650.977 325.584C650.682 326.197 650.268 327.076 649.734 328.111C649.474 328.632 649.183 329.191 648.873 329.781C648.719 330.077 648.56 330.379 648.397 330.689L648.146 331.156L648.018 331.393L647.862 331.669C647.417 332.44 646.882 333.156 646.269 333.802C645.647 334.463 641.205 339.817 639.38 340.902C637.48 342.236 628.913 345.231 627.046 346.955C626.511 347.449 623.016 372.944 623.016 372.944" fill="#FF9669"/>
<path d="M561.908 452.84L596.917 413.44L606.242 349.016L632.242 351.416C632.242 351.416 631.811 397.828 630.976 413.272C630.206 427.526 625.265 439.378 615.653 452.048C606.829 463.681 603.965 469.848 577.424 499.834C570.484 507.674 562.468 494.834 554.518 488.471C546.685 482.203 560.196 462.695 561.911 452.832" fill="white"/>
<path d="M436.865 380.858C435.913 380.08 452.353 382.739 452.375 378.237C447.351 360.105 446.28 351.013 443.997 346.273C442.158 342.453 433.797 339.209 432.797 338.717C429.964 337.202 427.362 335.289 425.072 333.035C424.755 332.672 424.308 332.448 423.827 332.411C423.346 332.375 422.87 332.53 422.502 332.841C422.319 332.994 422.172 333.184 422.069 333.398C421.966 333.613 421.911 333.847 421.907 334.085C421.902 334.323 421.949 334.559 422.044 334.778C422.139 334.996 422.28 335.191 422.457 335.35C423.51 336.599 426.772 340.15 426.83 340.208C426.743 340.22 426.653 340.234 426.577 340.244C426.296 340.276 426.018 340.327 425.744 340.398L422.021 338.342L414.995 331.164C414.728 330.907 414.37 330.765 413.999 330.769C413.628 330.773 413.273 330.922 413.011 331.185C412.939 331.259 412.856 331.354 412.632 331.001C412.532 330.844 412.401 330.709 412.248 330.604C412.094 330.498 411.921 330.425 411.738 330.389C411.555 330.353 411.367 330.355 411.185 330.393C411.003 330.432 410.83 330.508 410.678 330.615C410.501 330.735 410.356 330.895 410.254 331.083C410.041 330.935 409.786 330.859 409.526 330.864C409.267 330.869 409.015 330.956 408.808 331.112C408.599 331.275 408.45 331.504 408.386 331.761C408.322 332.019 408.346 332.29 408.454 332.532C408.454 332.532 408.611 332.889 408.906 333.501C409.201 334.113 409.615 334.993 410.149 336.028C410.409 336.549 410.7 337.108 411.01 337.698L411.486 338.606L411.737 339.073L411.865 339.31L412.021 339.586C412.467 340.357 413.001 341.073 413.614 341.719C414.236 342.38 418.678 347.734 420.503 348.819C422.403 350.153 430.971 353.148 432.838 354.872C433.373 355.366 436.868 380.861 436.868 380.861" fill="#FF9669"/>
<path d="M519.44 452.841L475.117 414.284L452.395 354.078L428.111 361.59C428.111 361.59 438.147 411.295 445.148 431.796C450.5 447.47 465.027 457.027 503.679 493.255C511.318 500.415 518.879 494.843 526.833 488.481C534.665 482.212 521.155 462.705 519.439 452.842" fill="white"/>
<path d="M509.779 539.749H509.827C509.963 539.736 510.088 539.67 510.176 539.565C510.263 539.46 510.305 539.325 510.292 539.189L507.167 505.206C507.163 505.137 507.146 505.069 507.115 505.007C507.085 504.945 507.042 504.889 506.989 504.844C506.937 504.799 506.876 504.765 506.81 504.743C506.744 504.722 506.675 504.715 506.606 504.721C506.537 504.727 506.47 504.747 506.409 504.78C506.348 504.813 506.294 504.858 506.251 504.912C506.208 504.966 506.176 505.028 506.157 505.095C506.138 505.161 506.133 505.231 506.142 505.3L509.267 539.283C509.279 539.41 509.338 539.529 509.432 539.616C509.527 539.702 509.651 539.75 509.779 539.751" fill="#30140E"/>
<path d="M506.644 505.76C506.754 505.76 506.861 505.724 506.95 505.659C507.038 505.593 507.104 505.501 507.136 505.396C507.169 505.291 507.166 505.178 507.13 505.074C507.094 504.97 507.025 504.88 506.934 504.818C504.369 503.04 502.512 500.417 501.688 497.407C500.864 494.397 501.126 491.193 502.427 488.357L505.715 481.299C505.744 481.238 505.76 481.172 505.763 481.104C505.766 481.037 505.756 480.969 505.733 480.906C505.71 480.842 505.674 480.784 505.629 480.734C505.583 480.684 505.528 480.644 505.467 480.615C505.406 480.586 505.34 480.57 505.272 480.567C505.205 480.564 505.137 480.574 505.074 480.597C505.01 480.62 504.952 480.656 504.902 480.701C504.852 480.747 504.812 480.802 504.783 480.863L501.495 487.921C500.092 490.98 499.81 494.434 500.699 497.68C501.588 500.925 503.591 503.754 506.357 505.671C506.442 505.729 506.542 505.76 506.645 505.76" fill="#30140E"/>
<path d="M512.551 540.203L571.621 540.344C571.621 540.344 588.409 572.552 591.16 591.966C593.612 609.266 583.46 623.459 559.342 626.448C526.775 630.484 507.842 579.062 507.842 579.062L508.41 554.179L512.551 540.203Z" fill="#4FA9A9"/>
<path d="M557.393 555.028C557.393 555.028 529.65 532.965 517.634 523.353C490.456 501.61 470.134 489.053 456.375 496.864C443.768 504.023 448.255 522.471 465.205 542.14C492.679 574.021 511.735 641.54 582.077 624.496L557.393 555.028Z" fill="#4FA9A9"/>
<path d="M566.605 612.32L535.905 611.594L534.087 630.236L580.703 629.126L566.605 612.32Z" fill="#EB7D5F"/>
<path d="M439.816 581.137L418.682 592.479C412.482 596.445 390.969 628.192 445.041 629.203C472.587 629.718 506.359 630.86 559.45 629.811L559.71 605.522C559.71 605.522 484.894 584.254 439.816 581.138" fill="#4FA9A9"/>
<path d="M530.786 605.382C530.786 605.382 495.95 615.882 478.186 619.203C445.67 625.291 421.528 631.687 411.777 618.766C403.039 607.188 413.865 589.039 438.647 579.444C478.823 563.889 515.547 549.734 515.547 549.734L530.786 605.382Z" fill="#4FA9A9"/>
<path d="M580.651 629.098C580.651 629.098 599.076 631.058 607.351 632.009C611.433 632.478 612.058 628.416 610.301 627.342C610.301 627.342 578.749 604.933 573.701 602.066C567.468 598.527 564.349 612.391 564.349 612.391L580.651 629.098Z" fill="#30140E"/>
<path d="M463.048 617.709V616.215L464.741 594.98L446.968 589.594L445.74 616.268L463.048 617.709Z" fill="#EB7D5F"/>
<path d="M485.96 512.864L455.53 497.402C434.662 509.993 441.396 610.512 441.396 610.512L468.519 610.653C468.519 610.653 483.776 571.409 485.96 512.864Z" fill="#4FA9A9"/>
<path d="M445.742 616.215C445.742 616.215 427.457 621.021 420.072 624.443C416.43 626.131 417.972 629.489 419.989 629.489H463.05C466.738 629.489 463.05 616.215 463.05 616.215H445.742Z" fill="#30140E"/>
<path d="M469.03 608.327C468.987 608.327 468.944 608.322 468.902 608.312C468.762 608.277 468.641 608.189 468.566 608.065C468.491 607.942 468.468 607.794 468.502 607.653C469.675 602.776 470.902 598.12 472.202 593.19C476.93 575.243 481.819 556.69 484.219 526.69C484.225 526.619 484.245 526.549 484.277 526.485C484.31 526.421 484.355 526.365 484.409 526.318C484.464 526.271 484.527 526.236 484.595 526.214C484.664 526.192 484.736 526.184 484.807 526.189C484.879 526.195 484.948 526.215 485.012 526.247C485.076 526.28 485.133 526.325 485.179 526.38C485.226 526.434 485.261 526.497 485.283 526.566C485.305 526.634 485.314 526.706 485.308 526.777C482.901 556.868 477.999 575.477 473.259 593.467C471.959 598.391 470.737 603.041 469.566 607.907C469.537 608.027 469.469 608.133 469.373 608.209C469.277 608.285 469.158 608.326 469.035 608.326" fill="#6E1809"/>
<path d="M557.375 606.311C557.508 606.31 557.637 606.261 557.737 606.173C557.836 606.084 557.9 605.963 557.916 605.83C557.932 605.698 557.899 605.564 557.823 605.455C557.748 605.345 557.634 605.267 557.505 605.235C530.963 598.847 504.032 594.203 476.883 591.335C476.812 591.328 476.74 591.334 476.671 591.355C476.602 591.376 476.538 591.41 476.483 591.455C476.427 591.5 476.381 591.556 476.347 591.619C476.313 591.683 476.292 591.752 476.285 591.823C476.277 591.895 476.284 591.967 476.305 592.036C476.326 592.104 476.36 592.168 476.405 592.224C476.45 592.279 476.506 592.325 476.569 592.359C476.632 592.393 476.702 592.415 476.773 592.422C503.871 595.283 530.752 599.916 557.244 606.291C557.287 606.301 557.331 606.307 557.375 606.307" fill="#6E1809"/>
<path d="M568.108 387.278C558.435 376.683 546.268 377.504 538.091 377.96C535.23 378.237 532.343 378.027 529.552 377.339C520.074 374.6 518.186 381.897 520.596 385.803C524.633 389.973 532.42 390.071 533.359 402.059C533.959 409.759 538.703 409.78 535.559 421.195C531.351 436.476 538.99 433.569 532.61 444.94C526.15 456.454 585.352 473.672 576.196 422.385C573.589 407.779 576.096 396.033 568.108 387.279" fill="#FCD9C2"/>
<path d="M558.041 554.466C557.923 554.466 557.808 554.427 557.714 554.357L538.552 540.031C538.436 539.944 538.359 539.815 538.338 539.671C538.318 539.528 538.355 539.382 538.442 539.266C538.528 539.15 538.658 539.073 538.801 539.052C538.944 539.032 539.09 539.069 539.206 539.156L558.368 553.482C558.46 553.55 558.529 553.646 558.563 553.756C558.597 553.866 558.596 553.983 558.56 554.092C558.524 554.201 558.454 554.296 558.361 554.363C558.267 554.43 558.155 554.466 558.04 554.466" fill="#6E1809"/>
<path d="M912.372 632.047H1011.37V572.047H1049.87V487.047H1011.37V272.047H903.872L750.372 491.047V572.047H912.372V632.047ZM850.872 487.047L919.872 382.547V487.047H850.872Z" fill="#EC9582"/>
</svg>
