<svg width="1901" height="111" viewBox="0 0 1901 111" fill="none" xmlns="http://www.w3.org/2000/svg">
<path d="M1166.64 110.395V37.5286C1177.93 43.0746 1195.84 13.6026 1204.92 17.2796C1216.85 22.1126 1237.82 27.0896 1253.52 25.5926C1277.67 23.2926 1301.33 15.7396 1301.33 15.7396C1301.69 15.6116 1304.47 14.5876 1305.33 14.2676C1316.28 10.2116 1328.7 4.78961 1350.96 5.61661C1363.56 6.19834 1375.98 8.80606 1387.76 13.3396C1388.62 13.6616 1390.77 14.4936 1391.77 14.8936C1403.73 19.6506 1424.04 27.7536 1444.31 26.5586C1468.52 25.1326 1484.29 15.3936 1496.22 10.5706C1496.22 10.5706 1499.37 9.41859 1500.23 9.09659C1511.17 5.04059 1523.58 0.445572 1545.85 0.445572C1568.13 0.445572 1580.54 5.0456 1591.48 9.0946C1592.35 9.4166 1595.85 10.6436 1595.85 10.6436L1595.87 10.6936C1607.81 15.5176 1620.33 25.3586 1644.59 25.3586C1668.85 25.3586 1679 20.5646 1691.47 15.7386C1691.47 15.7386 1694.25 14.5896 1695.11 14.2696C1706.06 10.2116 1718.46 5.61661 1740.74 5.61661C1763.02 5.61661 1775.42 10.2166 1786.36 14.2696C1787.23 14.5896 1813.93 25.5916 1838.19 25.5916C1862.45 25.5916 1875.04 21.1746 1886.72 15.7796C1890.49 14.0406 1895.52 11.2626 1900.99 8.31259V110.394L1166.64 110.395Z" fill="white"/>
<path d="M579.224 109.005L584.82 17.285C596.109 22.831 607.848 13.608 616.927 17.285C628.859 22.118 649.827 27.0951 665.527 25.5981C689.676 23.2981 713.344 15.745 713.344 15.745C713.7 15.617 716.484 14.593 717.344 14.273C728.288 10.217 740.709 4.79504 762.967 5.62204C775.569 6.20377 787.995 8.81149 799.767 13.345C800.635 13.667 802.783 14.499 803.782 14.899C815.742 19.656 836.048 27.7591 856.321 26.5641C880.535 25.1381 896.298 15.399 908.232 10.576C908.232 10.576 911.377 9.42402 912.243 9.10202C923.185 5.04602 935.592 0.451035 957.864 0.451035C980.136 0.451035 992.55 5.05104 1003.49 9.10004C1004.36 9.42204 1007.86 10.649 1007.86 10.649L1007.88 10.699C1019.82 15.523 1032.34 25.3641 1056.6 25.3641C1080.86 25.3641 1091.02 20.57 1103.48 15.744C1103.48 15.744 1106.26 14.5951 1107.13 14.2751C1118.07 10.2171 1130.47 5.62204 1152.75 5.62204C1175.03 5.62204 1187.43 10.2221 1198.37 14.2751C1199.24 14.5951 1225.94 25.597 1250.2 25.597C1274.46 25.597 1287.05 22.059 1298.73 16.664C1302.5 14.928 1307.53 20.059 1313 17.105L1313 109.008L579.224 109.005Z" fill="white"/>
<path d="M0.207214 109.824L0.991821 3.32982C12.2808 8.87582 22.5238 13.6058 31.6028 17.2818C43.5348 22.1148 64.5029 27.0918 80.2029 25.5948C104.352 23.2948 128.02 15.7418 128.02 15.7418C128.376 15.6138 131.16 14.5898 132.02 14.2698C142.964 10.2138 155.385 4.79182 177.643 5.61882C190.245 6.20055 202.67 8.80824 214.443 13.3418C215.311 13.6638 217.459 14.4958 218.458 14.8958C230.418 19.6528 250.724 27.7558 270.997 26.5608C295.211 25.1348 310.974 15.3958 322.908 10.5728C322.908 10.5728 326.053 9.4208 326.919 9.0988C337.861 5.0428 350.268 0.4478 372.54 0.4478C394.812 0.4478 407.226 5.04779 418.17 9.09679C419.04 9.41879 422.535 10.6458 422.535 10.6458L422.558 10.6958C434.495 15.5198 447.013 25.3608 471.273 25.3608C495.533 25.3608 505.691 20.5668 518.158 15.7408C518.158 15.7408 520.933 14.5918 521.801 14.2718C532.743 10.2138 545.147 5.61882 567.425 5.61882C589.703 5.61882 602.107 10.2188 613.049 14.2718C613.917 14.5918 640.612 25.5938 664.872 25.5938C689.132 25.5938 701.727 22.0558 713.409 16.6608C717.173 14.9228 722.207 20.0538 727.673 17.0998V109.824L0.207214 109.824Z" fill="white"/>
</svg>
