<svg width="1893" height="205" viewBox="0 0 1893 205" fill="none" xmlns="http://www.w3.org/2000/svg">
<path d="M0.0822023 204.681V8.44055C29.4858 22.8848 56.1653 35.2047 79.8096 44.7801C110.889 57.3702 165.486 70.3289 206.397 66.4305C269.295 60.4377 330.941 40.7673 330.941 40.7673C331.87 40.4331 339.12 37.7685 341.368 36.9353C369.872 26.3711 402.222 12.2496 460.196 14.4037C493.014 15.9204 525.375 22.7128 556.034 34.5203C558.293 35.3604 563.888 37.5259 566.493 38.5675C597.643 50.9584 650.53 72.0618 703.331 68.9486C766.398 65.2356 807.451 39.8769 838.537 27.3074C838.537 27.3074 846.728 24.3086 848.983 23.4685C877.482 12.9043 909.795 0.93679 967.806 0.93679C1025.82 0.93679 1058.15 12.9043 1086.65 23.464C1088.92 24.3041 1098.02 27.4997 1098.02 27.4997L1098.08 27.6302C1129.16 40.1905 1161.77 65.8285 1224.96 65.8285C1288.14 65.8285 1314.6 53.3414 1347.07 40.7719C1347.07 40.7719 1354.29 37.7778 1356.56 36.9445C1385.06 26.3757 1417.36 14.406 1475.38 14.406C1533.41 14.406 1565.71 26.3734 1594.21 36.9445C1596.47 37.7778 1666 66.4329 1729.19 66.4329C1792.38 66.4329 1825.18 54.9323 1855.61 40.8772C1865.41 36.347 1878.52 29.1112 1892.75 21.4198V204.707L0.0822023 204.681Z" fill="#EC9582"/>
</svg>
