<svg width="1893" height="205" viewBox="0 0 1893 205" fill="none" xmlns="http://www.w3.org/2000/svg">
<path d="M1892.75 0.623434V196.864C1863.35 182.42 1836.67 170.1 1813.03 160.525C1781.95 147.934 1727.35 134.976 1686.44 138.874C1623.54 144.867 1561.9 164.537 1561.9 164.537C1560.97 164.872 1553.72 167.536 1551.47 168.369C1522.97 178.934 1490.62 193.055 1432.64 190.901C1399.82 189.384 1367.46 182.592 1336.8 170.784C1334.54 169.944 1328.95 167.779 1326.34 166.737C1295.19 154.346 1242.31 133.243 1189.51 136.356C1126.44 140.069 1085.39 165.428 1054.3 177.997C1054.3 177.997 1046.11 180.996 1043.85 181.836C1015.35 192.4 983.042 204.368 925.031 204.368C867.021 204.368 834.689 192.4 806.185 181.841C803.919 181.001 794.818 177.805 794.818 177.805L794.758 177.675C763.674 165.114 731.07 139.476 667.882 139.476C604.693 139.476 578.238 151.963 545.769 164.533C545.769 164.533 538.542 167.527 536.281 168.36C507.781 178.929 475.475 190.899 417.453 190.899C359.431 190.899 327.123 178.931 298.625 168.36C296.366 167.527 226.837 138.872 163.648 138.872C100.46 138.872 67.6566 150.372 37.2297 164.428C27.4277 168.958 14.318 176.193 0.0820312 183.885V0.597656L1892.75 0.623434Z" fill="#EC9582"/>
</svg>
